<svg width="130" height="196" viewBox="0 0 130 196" fill="none" xmlns="http://www.w3.org/2000/svg">
<path d="M0 137.681V127.503H129.411V137.681C129.411 158.038 105.446 195.116 65.4327 195.116C17.4487 195.116 0.72703 155.13 0 137.681Z" fill="#20426B"/>
<path d="M15.837 90.6875C-7.39656 32.6475 34.1227 6.04583 57.7865 0C44.8802 4.03056 25.5189 22.1681 25.5189 54.4125C25.5189 86.657 49.7006 105.5 62 105.5H67.9219C80.2213 105.5 104.403 86.657 104.403 54.4125C104.403 22.1681 85.0417 4.03056 72.1354 0C95.7992 6.04583 137.318 32.6475 114.085 90.6875C104.553 110.838 83.338 119.236 73.9221 120.917C42.944 127.366 22.2912 103.451 15.837 90.6875Z" fill="#0092DF"/>
<path d="M88 70.5C88 83.4787 77.4787 94 64.5 94C51.5213 94 41 83.4787 41 70.5C41 57.5213 51.5213 47 64.5 47C77.4787 47 88 57.5213 88 70.5Z" fill="#0092DF"/>
</svg>
