<svg width="546" height="213" viewBox="0 0 546 213" fill="none" xmlns="http://www.w3.org/2000/svg">
<path d="M0 152.681V142.503H129.411V152.681C129.411 173.038 105.446 210.116 65.4327 210.116C17.4487 210.116 0.72703 170.13 0 152.681Z" fill="#20426B"/>
<path d="M15.837 105.688C-7.39656 47.6475 34.1227 21.0458 57.7865 15C44.8802 19.0306 25.5189 37.1681 25.5189 69.4125C25.5189 101.657 49.7006 120.5 62 120.5H67.9219C80.2213 120.5 104.403 101.657 104.403 69.4125C104.403 37.1681 85.0417 19.0306 72.1354 15C95.7992 21.0458 137.318 47.6475 114.085 105.688C104.553 125.838 83.338 134.236 73.9221 135.917C42.944 142.366 22.2912 118.451 15.837 105.688Z" fill="#0092DF"/>
<path d="M88 85.5C88 98.4787 77.4787 109 64.5 109C51.5213 109 41 98.4787 41 85.5C41 72.5213 51.5213 62 64.5 62C77.4787 62 88 72.5213 88 85.5Z" fill="#0092DF"/>
<path d="M205.766 69V36.5818H218.37C227.302 36.5818 232.788 42.3853 232.788 52.8136C232.788 63.2418 227.484 69 218.506 69H205.766ZM211.161 41.1611V64.4206H218.098C225.353 64.4206 227.393 59.0252 227.393 52.8136C227.393 46.602 225.353 41.1611 218.098 41.1611H211.161ZM254.249 61.3375H241.01L238.38 69H232.894L244.818 36.5818H250.486L262.365 69H256.879L254.249 61.3375ZM242.506 56.8488H252.798L247.72 41.5239H247.629L242.506 56.8488ZM259.637 36.5818H265.35L273.602 63.1058H273.647L281.899 36.5818H287.612L276.549 69H270.7L259.637 36.5818ZM290.736 36.5818H296.132V69H290.736V36.5818ZM301.715 69V36.5818H314.32C323.252 36.5818 328.738 42.3853 328.738 52.8136C328.738 63.2418 323.433 69 314.456 69H301.715ZM307.111 41.1611V64.4206H314.048C321.302 64.4206 323.342 59.0252 323.342 52.8136C323.342 46.602 321.302 41.1611 314.048 41.1611H307.111ZM357.502 44.743C357.502 48.7329 355.144 50.5919 352.469 51.4987V51.5894C355.87 52.1788 358.771 54.6725 358.771 59.5239C358.771 65.7808 354.464 69 347.754 69H333.064V36.5818H346.983C353.648 36.5818 357.502 39.5289 357.502 44.743ZM338.459 50.0025H346.802C350.656 50.0025 352.106 48.4609 352.106 45.6045C352.106 42.748 350.338 41.1611 347.119 41.1611H338.459V50.0025ZM338.459 54.0377V64.4206H347.346C351.97 64.4206 353.376 62.2443 353.376 59.2065C353.376 55.8967 351.336 54.0377 347.935 54.0377H338.459ZM387.804 57.937C387.804 65.0101 384.04 69.6801 375.018 69.6801C365.995 69.6801 362.232 65.0101 362.232 57.937V36.5818H367.627V57.937C367.627 62.8337 370.076 65.0554 375.018 65.0554C380.005 65.0554 382.454 62.8337 382.454 57.937V36.5818H387.804V57.937ZM392.927 36.5818H398.322V52.5869L413.012 36.5818H419.451L406.846 50.3198L420.222 69H413.919L403.31 54.0831L398.322 59.4332V69H392.927V36.5818ZM434.981 69.6801C425.187 69.6801 419.066 62.5164 419.066 52.7682C419.066 43.0201 425.187 35.9017 434.981 35.9017C444.729 35.9017 450.895 43.0201 450.895 52.7682C450.895 62.5164 444.729 69.6801 434.981 69.6801ZM434.981 65.0554C442.416 65.0554 445.499 59.3425 445.499 52.7682C445.499 46.2392 442.416 40.5264 434.981 40.5264C427.545 40.5264 424.416 46.2392 424.416 52.7682C424.416 59.3425 427.545 65.0554 434.981 65.0554ZM455.181 36.5818H460.576V64.4206H476.763V69H455.181V36.5818ZM499.458 61.3375H486.218L483.589 69H478.103L490.027 36.5818H495.695L507.574 69H502.087L499.458 61.3375ZM487.715 56.8488H498.007L492.929 41.5239H492.838L487.715 56.8488ZM205.766 129V96.5818H218.37C227.302 96.5818 232.788 102.385 232.788 112.814C232.788 123.242 227.484 129 218.506 129H205.766ZM211.161 101.161V124.421H218.098C225.353 124.421 227.393 119.025 227.393 112.814C227.393 106.602 225.353 101.161 218.098 101.161H211.161ZM242.51 109.957H258.333V114.582H242.51V124.421H261.008V129H237.114V96.5818H260.555V101.161H242.51V109.957ZM262.914 96.5818H268.627L276.879 123.106H276.924L285.176 96.5818H290.889L279.826 129H273.977L262.914 96.5818ZM299.318 109.957H315.141V114.582H299.318V124.421H317.817V129H293.922V96.5818H317.363V101.161H299.318V109.957ZM322.216 96.5818H327.611V124.421H343.798V129H322.216V96.5818ZM360.417 129.68C350.624 129.68 344.503 122.516 344.503 112.768C344.503 103.02 350.624 95.9017 360.417 95.9017C370.165 95.9017 376.332 103.02 376.332 112.768C376.332 122.516 370.165 129.68 360.417 129.68ZM360.417 125.055C367.853 125.055 370.936 119.343 370.936 112.768C370.936 106.239 367.853 100.526 360.417 100.526C352.981 100.526 349.853 106.239 349.853 112.768C349.853 119.343 352.981 125.055 360.417 125.055ZM380.618 129V96.5818H394.401C400.613 96.5818 405.101 99.4835 405.101 106.285C405.101 113.086 400.613 116.033 394.401 116.033H386.013V129H380.618ZM386.013 101.161V111.408H394.174C397.802 111.408 399.706 109.866 399.706 106.285C399.706 102.748 397.802 101.161 394.174 101.161H386.013ZM408.69 129V96.5818H415.672L424.74 121.519H424.831L433.853 96.5818H440.836V129H435.576V104.426H435.486L426.916 129H422.609L414.04 104.426H413.949V129H408.69ZM451.765 109.957H467.589V114.582H451.765V124.421H470.264V129H446.37V96.5818H469.811V101.161H451.765V109.957ZM474.663 129V96.5818H480.693L495.293 120.929H495.384V96.5818H500.779V129H494.794L480.149 104.743H480.059V129H474.663ZM513.827 129V101.161H503.444V96.5818H529.56V101.161H519.223V129H513.827ZM211.161 170.592H225.171V175.217H211.161V189H205.766V156.582H228.436V161.161H211.161V170.592ZM246.137 189.68C236.343 189.68 230.223 182.516 230.223 172.768C230.223 163.02 236.343 155.902 246.137 155.902C255.885 155.902 262.051 163.02 262.051 172.768C262.051 182.516 255.885 189.68 246.137 189.68ZM246.137 185.055C253.573 185.055 256.656 179.343 256.656 172.768C256.656 166.239 253.573 160.526 246.137 160.526C238.701 160.526 235.573 166.239 235.573 172.768C235.573 179.343 238.701 185.055 246.137 185.055ZM291.456 177.937C291.456 185.01 287.693 189.68 278.67 189.68C269.647 189.68 265.884 185.01 265.884 177.937V156.582H271.279V177.937C271.279 182.834 273.728 185.055 278.67 185.055C283.657 185.055 286.106 182.834 286.106 177.937V156.582H291.456V177.937ZM296.579 189V156.582H302.609L317.209 180.929H317.299V156.582H322.695V189H316.71L302.065 164.743H301.974V189H296.579ZM328.237 189V156.582H340.842C349.774 156.582 355.26 162.385 355.26 172.814C355.26 183.242 349.955 189 340.978 189H328.237ZM333.633 161.161V184.421H340.57C347.824 184.421 349.865 179.025 349.865 172.814C349.865 166.602 347.824 161.161 340.57 161.161H333.633ZM376.721 181.338H363.481L360.851 189H355.365L367.29 156.582H372.957L384.836 189H379.35L376.721 181.338ZM364.977 176.849H375.27L370.192 161.524H370.101L364.977 176.849ZM392.374 189V161.161H381.991V156.582H408.107V161.161H397.769V189H392.374ZM411.88 156.582H417.275V189H411.88V156.582ZM437.77 189.68C427.977 189.68 421.856 182.516 421.856 172.768C421.856 163.02 427.977 155.902 437.77 155.902C447.518 155.902 453.684 163.02 453.684 172.768C453.684 182.516 447.518 189.68 437.77 189.68ZM437.77 185.055C445.206 185.055 448.289 179.343 448.289 172.768C448.289 166.239 445.206 160.526 437.77 160.526C430.334 160.526 427.206 166.239 427.206 172.768C427.206 179.343 430.334 185.055 437.77 185.055ZM457.97 189V156.582H464.001L478.6 180.929H478.691V156.582H484.086V189H478.101L463.457 164.743H463.366V189H457.97Z" fill="#20426B"/>
<path d="M166 13L166 213" stroke="#20426B" stroke-width="3.83264"/>
</svg>
